<svg id="Layer_1" data-name="Layer 1" xmlns="http://www.w3.org/2000/svg" xmlns:xlink="http://www.w3.org/1999/xlink" viewBox="0 0 429.24 627.38"><defs><style>.cls-1{fill:none;}.cls-2{clip-path:url(#clip-path);}.cls-3{clip-path:url(#clip-path-2);}</style><clipPath id="clip-path"><path class="cls-1" d="M33.09,222.89l-.22-.73c-4.27-1.52-21.3-6.58-28.76,6.42C3.87,207.86,25,213.2,25,213.2S3.05,200.5,9.32,175.39,42.16,143,42.16,143s-11-18.15,3.73-39.62S91.57,81.07,91.57,81.07,85.89,69.21,96,60.17s23.19-1.78,23.19-1.78-24.57-.09-21.09,14.5c2.77,11.58,9.3,7.92,11.88,5.92a56.67,56.67,0,0,1,35.56-26.73A54.89,54.89,0,0,1,165.32,51l2.58-.9c1.31-19.21,15.48-36.39,36-41.31a47.6,47.6,0,0,1,34.41,4.63,42.35,42.35,0,0,1,71.75,17.7,34.5,34.5,0,0,1,7.4-2.72c18-4.31,36,6.27,40.14,23.65a31.18,31.18,0,0,1,.52,11.73c22.67-2.94,37.51,16.14,41.58,33.09a42.49,42.49,0,0,1-4.74,31.24c16.22,12.59,25.68,31.63,2.85,58.56,12.93-23,5.92-40.75-6.21-53.52-.31.41-.66.78-1,1.18a28.71,28.71,0,0,1-11,14c4.32,10,4.67,36.68,4,59a16.71,16.71,0,0,0,.09,2.25c4.52.83,11,0,18.51-7-2.47,10.71-10.27,14.06-16.26,15,9.46,22.14,44.42,51.06,43.25,63.92-1.36,15-22.45,19.05-21.78,26.54s8.85,9.53,8.85,9.53,8.17,10.21-6.12,20.41c15,6.8,5.44,22.46,5.44,22.46s-10.82,1.53-10.21,6.12,12.93,23.14,0,40.83-78.25-3.4-102.75,3.4-70.77,102.76-66.69,132,41.51,84.38,41.51,84.38c-112,4.44-90.52-115-176.86-126.55,72.22-51.51,54.89-123.29,54.89-123.29-1.48-.79-2.89-1.6-4.33-2.41a34,34,0,0,1-2.7,12.12h0c-5.41,30.07-44.38,26.25-49,44.36s15.27,32.24,15.27,32.24-24-3.69-26.44-29.56C86.8,418.09,98.74,407.92,108,402.52a33.76,33.76,0,0,1-17.57-21.76h0a27.15,27.15,0,0,1-32.86-19.86,26.59,26.59,0,0,1,1.63-17.12C32.89,343,8.82,323.16,1.9,294.29-5.27,264.36,8.39,234.72,33.09,222.89Z"/></clipPath><clipPath id="clip-path-2"><rect class="cls-1" x="-141.18" y="-9.95" width="694" height="693"/></clipPath></defs><title>esencia</title><g class="cls-2"><g class="cls-3"><image width="5472" height="3072" transform="translate(-549.71 -39.4) scale(0.22)" xlink:href="../../../../Downloads/editable/editable Pantalla Chat Esencial_Folder/Links/Carreta.jpg"/></g></g></svg>