<svg id="Layer_1" data-name="Layer 1" xmlns="http://www.w3.org/2000/svg" viewBox="0 0 300.43 143.14"><defs><style>.cls-1{fill:#00833e;}.cls-2,.cls-3{fill:#63a70a;}.cls-2{fill-rule:evenodd;}</style></defs><title>logo</title><g id="_Group_" data-name="&lt;Group&gt;"><path id="_Path_" data-name="&lt;Path&gt;" class="cls-1" d="M137.35,92A1,1,0,0,0,136,92c-2.49,2.31-4.73,3.76-8.23,3.76-5.26,0-9.24-4.32-9.24-10.14,0-5.67,4-9.94,9.24-9.94,2.91,0,5.3,1.07,8,3.59a1,1,0,0,0,.73.26,1,1,0,0,0,.69-.35l3.49-4a1,1,0,0,0-.06-1.36,17,17,0,0,0-12.81-5.1,17,17,0,0,0-.22,34c5.41,0,9.38-1.73,13.28-5.79a1,1,0,0,0,0-1.37Z"/><path id="_Compound_Path_" data-name="&lt;Compound Path&gt;" class="cls-1" d="M159.65,68.69a17,17,0,0,0-17.23,17.1c0,9.65,7.37,16.92,17.14,16.92a17,17,0,0,0,17.23-17.1c0-9.64-7.37-16.92-17.14-16.92m0,27.06c-5.44,0-9.55-4.32-9.55-10.14,0-5.67,4.06-9.94,9.46-9.94s9.55,4.31,9.55,10.12-4.07,10-9.46,10"/><path id="_Path_2" data-name="&lt;Path&gt;" class="cls-1" d="M194.36,82.27c-6.27-1.5-6.59-2.46-6.59-4s1.64-2.7,4.06-2.7a13.06,13.06,0,0,1,7.82,3,1,1,0,0,0,.74.19,1,1,0,0,0,.65-.41L204,74.23a1,1,0,0,0-.19-1.34,18.19,18.19,0,0,0-11.86-4.12c-6.7,0-11.57,4.2-11.57,10.06,0,6.3,4.06,8.52,11.08,10.22,5.79,1.33,6.24,2.4,6.24,3.86,0,2.15-2.33,2.91-4.5,2.91-3.34,0-6.07-1.13-9.14-3.79a1.07,1.07,0,0,0-.72-.25,1,1,0,0,0-.68.36L179.35,96a1,1,0,0,0,.1,1.38,20.14,20.14,0,0,0,13.59,5.2c7.31,0,12-4,12-10.33,0-6.52-5.14-8.67-10.71-10"/><path id="_Path_3" data-name="&lt;Path&gt;" class="cls-1" d="M234.29,75.25v-5a1,1,0,0,0-1-1H208.16a1,1,0,0,0-1,1v5a1,1,0,0,0,1,1H217v25a1,1,0,0,0,1,1h5.49a1,1,0,0,0,1-1v-25h8.84a1,1,0,0,0,1-1"/><path id="_Compound_Path_2" data-name="&lt;Compound Path&gt;" class="cls-1" d="M251.79,69.59a1,1,0,0,0-.9-.59h-5a1,1,0,0,0-.9.59l-13.63,31.2a1,1,0,0,0,.9,1.38h5.58a1,1,0,0,0,.9-.6l2.94-6.88H255l2.9,6.87a1,1,0,0,0,.91.6h5.75a1,1,0,0,0,.91-1.38Zm.35,18.32h-7.68L248.28,79Z"/><path id="_Compound_Path_3" data-name="&lt;Compound Path&gt;" class="cls-1" d="M134.34,130.39a10.17,10.17,0,0,0,6.81-10,10.38,10.38,0,0,0-2.86-7.39c-2.27-2.21-5.59-3.38-9.64-3.38H114.84a1,1,0,0,0-1,1v31a1,1,0,0,0,1,1h5.45a1,1,0,0,0,1-1v-9.81h5.32l7.33,10.38a1,1,0,0,0,.8.41h6.42a1,1,0,0,0,.8-1.55Zm-13.07-13.82h6.94c2.48,0,5.44.73,5.44,4.24,0,2.59-2.06,4.2-5.38,4.2h-7Z"/><path id="_Path_4" data-name="&lt;Path&gt;" class="cls-1" d="M153.05,109.66H147.6a1,1,0,0,0-1,1v31a1,1,0,0,0,1,1h5.45a1,1,0,0,0,1-1v-31a1,1,0,0,0-1-1"/><path id="_Path_5" data-name="&lt;Path&gt;" class="cls-1" d="M185.71,132.43a1,1,0,0,0-1.37,0c-2.49,2.32-4.73,3.76-8.23,3.76-5.27,0-9.24-4.31-9.24-10.13,0-5.67,4-9.95,9.24-9.95,2.9,0,5.3,1.08,8,3.59a1,1,0,0,0,.73.27,1,1,0,0,0,.69-.35l3.5-4a1,1,0,0,0-.07-1.36,17,17,0,0,0-12.81-5.1,17,17,0,0,0-.21,34c5.41,0,9.37-1.73,13.28-5.8a1,1,0,0,0,0-1.36Z"/><path id="_Compound_Path_4" data-name="&lt;Compound Path&gt;" class="cls-1" d="M224.8,141.22,211.17,110a1,1,0,0,0-.9-.6h-5a1,1,0,0,0-.9.6l-13.64,31.2a1,1,0,0,0,.91,1.38h5.58a1,1,0,0,0,.91-.6l2.93-6.87h13.34l2.88,6.87a1,1,0,0,0,.92.6h5.75a1,1,0,0,0,.9-1.38m-13.29-12.88h-7.68l3.83-8.93Z"/><path id="_Compound_Path_5" data-name="&lt;Compound Path&gt;" class="cls-2" d="M157.23,53.87a4.25,4.25,0,0,0-.57-.69.83.83,0,0,1-.4-.38,4.07,4.07,0,0,1-.59-.26c-.29-.11.41,0,.26-.12-.8-.44-1.54-2.22-2-4.72.06.07-.26-3.45-.24-3.81a21.37,21.37,0,0,1,.19-4.41,20.91,20.91,0,0,0,.28-2.82c.13-1,.26-.8.49-2.82.07-.16.12-.51.2-.68a2,2,0,0,0-.21-1c.1-.19-.57-.66-.83-1a11.3,11.3,0,0,0-2.76-.35c-.16.14-.43,0-.5,0l-.62.16c-.4.21-.64.27-1,.48-.19.19-1.18,1.18-1.36,1.37-1.46,1.77.42-.08-.22.65-.5.52-1.34,1.48-2.24,2.51-.39.45-.31.61-.69,1s-.62,1-.9,1.29a10.21,10.21,0,0,1-2.24,1.92,22.6,22.6,0,0,0-1.34,2c-.31.35-.56.55-.86.91-.1.33-1,1-1.74,2.21a1.53,1.53,0,0,1-.26.44c-.06,0-.21.19-.28.19,0-.29,0,0,.05-.3a6.6,6.6,0,0,1,.26-1.58c0-.15-.08-.66-.07-.8.59-1.36.14-1.35.51-2.74-.19.41.17-.86.18-.87a9,9,0,0,0,.51-2,7.91,7.91,0,0,0,.48-2.7c-.06-.73-.4-.41-.4-.41a0,0,0,0,0,0,0s0,0,0,0-.35-.69-1.92-.35a4.46,4.46,0,0,0-2,.21,4.74,4.74,0,0,0-.94.36c-.19.15-.72.76-.91.91l-.31.32-.35.37c-.12.16-.42.82-.53,1-.29.34-.56.69-.83,1-.61.73-.63.65-1.21,1.35a2.46,2.46,0,0,0-.44.7c-.13.26-.25.48-.36.68a11.68,11.68,0,0,1-1.21,1.22c-.17.64-2.62,2.07-2.7,2.67.13-.47-2.27,2.34-3.06,2.58,0,0-4.13,3.1-6.38,3.5a5.53,5.53,0,0,1-4.87-.2c-.42-.46-.71-.44-.89-.72.06,0-.32-.37-.26-.34-1.79-1.57-.92-3.32-.43-4.46a1.76,1.76,0,0,1,.08-.39c.42-.09.91-.3,1.8-.55.3-.08.77,0,1.13-.05.15,0,.42-.07.87-.21.61-.18,1.62-.7,1.81-.75s.48,0,.79-.13a11.07,11.07,0,0,0,1.28-.54,16.18,16.18,0,0,0,1.85-.76c.35-.17.32-.27.65-.45s1.1-.45,1.43-.63c.17-.08.52-.42.69-.51s.28,0,.53-.21.77-.34,1-.49a16.71,16.71,0,0,0,1.9-1.81,18.55,18.55,0,0,0,2.38-3.33,7.37,7.37,0,0,0,1-2.64,3.16,3.16,0,0,0-1-2.87,4.5,4.5,0,0,0-3.28-1c-4.75.75-5.93,2-8,3A24.08,24.08,0,0,0,109.76,36a22.08,22.08,0,0,0-5.24,8.11c-.06,1.51-1,4.26.24,6.31a2.77,2.77,0,0,0,.06.86,27.61,27.61,0,0,0,1.79,2.13h-.11A9.19,9.19,0,0,0,110,55l-.09,0a7.64,7.64,0,0,0,1.72.25l-.31.06a19.06,19.06,0,0,0,6.18-1l.58-.3c3.67-1,3.25-2.16,6-3.47,0,0,.35-.29.36-.28,1.54-2,3-2.45,4.52-3.93l.11,0a4.59,4.59,0,0,0,1.06-1l.64-1,.91-1.09c.05-.06.23-.57.29-.62a3.84,3.84,0,0,1,.87-1.24,4.07,4.07,0,0,1-.18,2.07,17.19,17.19,0,0,1-.09,2.33c.07.32-.2,1.74-.1,2s-.13.55,0,.85c.09.15.32.59.4.74a2.75,2.75,0,0,0,.39.46c.15.09.19.26.35.36s.39.34.58.41.51.26.74.28a2.93,2.93,0,0,0,.66.09l.61,0c0,.06.11,0,.35-.11h.19c0,.07.18-.07.65-.25l.45-.3s.4-.32.46-.37.2-.12.3-.31.22-.21.39-.44.34-.3.44-.43.75-1,.9-1.11c.34-.56,1.74-1.58,1.91-2.09.35-.45,3.25-4.21,3.64-4.66a8.32,8.32,0,0,0,1.51-1.82A13.34,13.34,0,0,0,149,37.5c.09-.12.45-1.13.57-1.3s0,.5.17.27a13.81,13.81,0,0,0-.58,5.06,6.24,6.24,0,0,1,0,2.13s.08,1.47.08,1.56c0,1,0,.67.64,3.23a10.54,10.54,0,0,0,3.45,6,3.51,3.51,0,0,0,2.33,1,1.87,1.87,0,0,0,1.1-.22c.06,0-.23,0-.18-.07s.23,0,.43-.2c0,0,0-.25.06-.3s.32-.15.36-.21a3,3,0,0,0-.1-.3c.07-.1,0,.12.14.08s-.26-.37-.26-.43M111.65,39.21c1.14-1.15,3.34-3.11,3.34-3.11,1-1.11.92-1,3-2l.64-.42.62-.25c-.08-.08.29-.08.54-.29.43.06.34-.24,1.23-.71.76-.18,1.66-.92,2.49-.8.23.08.68.62.08,1.88A10.66,10.66,0,0,1,121.7,36c-.48.44-1,.93-1.47,1.39s-1.48.72-2.42,1.27c-.77.44-1.79.74-2.57,1.1a15.11,15.11,0,0,1-2.05.76,6,6,0,0,1-1.78.64c0-.83-1-.6.23-1.91"/><path id="_Path_6" data-name="&lt;Path&gt;" class="cls-2" d="M174.89,50.56c1.26-.49,6.3-4.64,7.07-5.49a3.66,3.66,0,0,0,.63-.49,2.69,2.69,0,0,0,.36-.61l1-1c.09-.1-.14-.06.31-.47l0-.42.49-.43a4,4,0,0,0-.2.94c0,.27-.07.54-.1.8a3.2,3.2,0,0,1-.14,1.08,12.49,12.49,0,0,0,.35,3,5,5,0,0,0,.36,1,5.53,5.53,0,0,1,.25,1.45,12.1,12.1,0,0,0,.87,1.71c.34.48.56,1,.91,1.46.32.29.44.47.76.76.2.07.48.25.69.33s.91-.19,1.19-.12c.19-.13.37-.28.57-.43l.35-.56a13.72,13.72,0,0,0-.8-2.17l-.65-1-.3-.85-.31-1.07-.3-1.48a6.21,6.21,0,0,1-.06-1.95c0-.29,0-.59,0-.88a33.46,33.46,0,0,1,.67-5.69,5.72,5.72,0,0,0,.34-.92c-.08.16-.14.13-.09,0,.26-.84-.05,0,.16-.86a6.28,6.28,0,0,1,.51-1.56c.14-.35.43-1,.43-1s.12-.09.2-.68c-.13-.62-2.38-.91-3.31-.19l-.37.27-.71.62a5.86,5.86,0,0,1-.33.61c-.09.2-.23.42-.34.66-.53.81,0,.63-.24,1.1l-1,1.72-.17.32-1.11,1.33a19.74,19.74,0,0,1-2.27,2c.12,0-1,.9-1.17,1.1-.38.32-1.16,1-1.46,1.2l-2.65,2A15.09,15.09,0,0,1,173.06,47L172,47.7a7.62,7.62,0,0,1-4.08,1.38,2.3,2.3,0,0,1-1.78-.94,9.36,9.36,0,0,1-.66-1.05c-.28-.68-.18,0-.35-.75-.84-.8,1.52-6.14,2.62-7a17.34,17.34,0,0,1,1.38-1.92l0,.08a30.83,30.83,0,0,1,4.29-4.05l-.11,0c.53-.52.55-.31,1-.58-.14-.1.35-.52.56-.65v0a12.16,12.16,0,0,1,1.52-1v.1a3.77,3.77,0,0,1,1.09-.66l.47-.1s0,.1,0,.28c.43,0,0,.33,0,.42a1.91,1.91,0,0,0-.26,1.15s.24.43.41.66.79.54,1,.41a.54.54,0,0,0,.55,0,2.12,2.12,0,0,0,.7,0,4.8,4.8,0,0,0,.92-1.33c.25-.46.07-.64.14-.58s.24-.1.38-.58c.14-.74-.17-.11-.09-1.18.25-.72-1.07-2.17-1.56-2.44a3.15,3.15,0,0,0-1.93-.47,5.47,5.47,0,0,0-.57,0,8.61,8.61,0,0,0-2.35.51,17.71,17.71,0,0,0-3.64,1.83,17.11,17.11,0,0,0-1.82,1.34.57.57,0,0,1-.33.11c.07-.06-2.93,2.81-2.93,2.88l.07.15c-.53.58-.28,0-.75.61,0,.36-.87,1-1.15,1.37s-.21.3-.33.5.07,0,.14-.05l-.29.43c-.16.14-.24.14-.12,0-1,.81-4.19,7-3.75,9.33-.1.4.16,1,.05,1.42l.14.13,0,.28a13.33,13.33,0,0,0,1,2.37,8.9,8.9,0,0,0,1.66,1.5c-.07,0-.2-.24,0-.12,0,.12.62.32.67.49.2.14.94.53.75.26.11.13.83.42.36.32a2.7,2.7,0,0,0,.68.23,6,6,0,0,0,1.42.2.75.75,0,0,1,.44.13,4.74,4.74,0,0,0,1,0s1.27-.15,1.27-.15a19.13,19.13,0,0,0,5.1-2.29"/><path id="_Path_7" data-name="&lt;Path&gt;" class="cls-2" d="M194.25,29.34c0-.65.39-.8.35-1.26s-1-.58-.91-1.37c-.38-.08-.45-.49-.72-.68s-.59,0-.57-.34c-.52,0-.65-.15-1.09-.19-1-.07-2.53.12-3,1,0,.27-.11.36.06.48-.2.08-.27.32-.32.56s.3.33.11.76c.51.25.21,1.22,1.08,1.3,0,.18-.13.14,0,.28s.38,0,.64,0c.72,1,2.43-.23,3.62.19.32-.18.44-.58.82-.7"/><path id="_Compound_Path_6" data-name="&lt;Compound Path&gt;" class="cls-2" d="M101.54,30.09c.43.39,2.08-.91,2.47-1a8.18,8.18,0,0,0,1.71-3.61c.14-.38-.25-.84-.16-1.34-.35-.21-.34-.84-1.08-.73-.14-.62-1.08.09-1.58-.21-.34.3-.9.25-1,.36a7.77,7.77,0,0,0-1.69,1.23c-.08.09-.09.25-.18.35s-.2,0-.24,0a1.49,1.49,0,0,0-.1.2c-.33.41-.89.9-1.23,1.27a6.06,6.06,0,0,0-.44.49,8.81,8.81,0,0,0-.48.76c-.2.3-.51.61-.71.91L96,30c-.16.24-.1.38-.22.61s-.4.44-.55.7c0,.1,0,.23,0,.34s-.23.19-.27.27c-.5,1.08-.73,2.18-1.28,3.1.21,0-.08.43-.16.73s0,.57-.24.69c.29.2-.27.76,0,1.14,0,0,0,.06,0,.08a15.25,15.25,0,0,0-1.65,2.14,82.21,82.21,0,0,1-7.64,5.49c-1.47.69-2.66,1.43-4,2.12-.76.37-1.59.76-2.43,1.08l-.5.19-.69.18-.63.17c-2.94.82-7.41,2.33-10.79,2-.42-.23-1-.34-1.42-.58,0-.1-.09-.13,0-.27-.46.09-.86-.77-.95-1.28a5.64,5.64,0,0,1,1.9-4.23c1.21.05,1.83-.75,2.82-.72a26,26,0,0,1,3.15-1.14c.17-.1.22-.22.43-.15,1.93-.72,3.57-1.43,5-1.88,0-.12,4.59-2.14,5.18-2.51,2.08-.75,3.87-2,5.71-2.79,0,0,.21-.25.22-.07-.62.66.8-.07,1.81-1.22.54-.61,1.33-1.44,1.39-2s-.32-.78,0-1.19c-.31-.14-.26-.61-.4-.91a9.74,9.74,0,0,0-2.83-2.27,5.19,5.19,0,0,0-1.73-.38c-.33,0-.66.19-1,.2-4.59,0-7.54,1.56-10.84,3.27-.16.19-.09.27-.18.42a7.42,7.42,0,0,0-2.54,1.35,44.65,44.65,0,0,0-4.62,3.29c-1.83,1.83-3.81,3.48-5.21,5.78a9.74,9.74,0,0,1-1,.55c.19,0,.26,0,.19.21-.62-.17-2.47.54-3.59.65-.46.68-1.84.25-2.2.8-.8.09-5.83,1.47-6.15,1.52s-9.35,2.23-9.62,2.24a34.7,34.7,0,0,1-5.48,1.11c-1.23.17-3.68.88-3.66.65A46.38,46.38,0,0,0,21,50.81c-.23-.37-.61.11-.93.12-.18-.28-3,.1-2.65.31-.34-.26-.2.35-.57.06,0-.11.18-.05.16-.21a1.66,1.66,0,0,0-.88.34c0-.1.13-.12.16-.21-5.11.47-11.62.55-15.27-2.17-.16,0-.15.13-.35.06s-.19-.22-.4-.22c-.63,1,.18,1.52.44,2.11-.22,0-.21-.14-.35,0-.08.66.78.74.52,1.19a17.65,17.65,0,0,0,10.21,2.65.35.35,0,0,0,0,.28,20.84,20.84,0,0,1,3-.15,7.72,7.72,0,0,0,3.41-.31c.11.33,1.73-.35,2.37-.31,0,.06-.19.26,0,.21a11.71,11.71,0,0,1,2.86-.31c.21.15,2.7-.07,2.22-.32.49-.11.73,0,1.08-.26-.2,0,2.43-.61,2.21-.25a4.34,4.34,0,0,0,.87-.2,23.22,23.22,0,0,1,4.7-.5c-.19-.38,1.08-.43.59-.2.4-.1,3.23-.46,3.18-.72.51-.07,3.34-.47,3.44-.44s2.78-1,2.76-.94a21.9,21.9,0,0,1,4.62-1l1.8-.25c-.28,0,4-1.35,3.9-1a2.28,2.28,0,0,0,.81-.28c0-.17,2.89-1,2.82-.72.31,0,.49-.18.79-.2A4.51,4.51,0,0,0,59,49.8c0,.14-.2.09-.17.26a11.31,11.31,0,0,0,2.86,4.17c2.35,1.49,6.26,1.15,9.18.75a48.63,48.63,0,0,0,7.28-2.28h0c1.05-.41,2.13-1,3.16-1.28a36.58,36.58,0,0,1,4.48-2.53c1.54-1.34,4.71-3.43,6.06-5A5.42,5.42,0,0,0,93,43.05v.35a15.7,15.7,0,0,0,.49,2.27c-.07.36.08.65.24.66a.42.42,0,0,0-.12.34C93.95,48.2,94.64,49.47,95,51a1.47,1.47,0,0,0,.28.25c-.06.22.11.23,0,.47a4.36,4.36,0,0,1,.52.91c.06.19,0,.42.08.61.21.6.58,1.16.82,1.77a11.93,11.93,0,0,1,.53,2.79,7.19,7.19,0,0,1,.15.73c0,.45-.25.9-.32,1.42,0,.1.07.23,0,.34a10.07,10.07,0,0,1-.6,1.16c0,.1,0,.24,0,.33a13,13,0,0,1-1.7,2,11.15,11.15,0,0,0-1.38,1.27,18.07,18.07,0,0,1-3,1.68,15.07,15.07,0,0,1-1.45.55c-.47.11-1,0-1.49.13-.19,0-.31.15-.48.15-.44,0-1-.31-1.42.21-.24-.34-.76-.12-1.21-.22a1.44,1.44,0,0,1,0-.19c-.4.09-.37-.16-.7-.11-.18.55.33.5.29.93.24,0,.29.12.44.18-.18.5.67.31.38.72a10.79,10.79,0,0,0,1.3.14c0,.24.12.35.25.46a3.85,3.85,0,0,1,1.23.06c-.24.31.11.06.2.26-.31.12-.77,0-1.1.19.12.25.89.34,1.66.25.18,0,.39-.16.57-.16s.41.18.6.17c.68,0,1.22-.5,1.76-.49.09.25-.27.05-.25.22.24,0,.34-.14.63-.11.09-.23.85-.49.74-.3a3.79,3.79,0,0,0,1.32-.13,4.67,4.67,0,0,0,1.88-1,4.39,4.39,0,0,0,.85-.59c.17-.13.35-.24.51-.36a16,16,0,0,0,2.66-2.47,3.36,3.36,0,0,1,.78-1.31c0-.16,0-.31.05-.47.35-.19.22-.46.31-.68s.23-.2.26-.29a.43.43,0,0,1,0-.27,16.16,16.16,0,0,0,.79-2.92,14.72,14.72,0,0,0-.37-2.86s.11-.16.1-.21-.18-.2-.19-.33a5.89,5.89,0,0,0-.63-1.93c-.23-.47-.3-.86-.48-1.25s-.14-.61-.28-.92-.39-.51-.46-.78c0-.08.05-.19,0-.27-.2-.53-.56-1-.76-1.5s-.22-.8-.34-1.07a9.75,9.75,0,0,1-.76-2.91A7.14,7.14,0,0,1,97.09,43a13.46,13.46,0,0,1,0-2.48,17.1,17.1,0,0,1,.41-2.9A29.2,29.2,0,0,1,99.88,32c.11-.22.38-.34.47-.75a2.35,2.35,0,0,1,.49-1c.87-1.05.14.14.71-.18m-33,8.54a33.94,33.94,0,0,1,5.1-3.9l.55-.63c.24-.09,1.4-.44,1.75-.61a13.56,13.56,0,0,1,3.82-1.55,2.72,2.72,0,0,1,2-.58c.94-.6,2.15-.21,3.31,0-3,2.51-6.58,4.17-10,5.9-.5.19-4,1.65-5.47,2-1,.23-1.72-.12-1-.65"/><path id="_Compound_Path_7" data-name="&lt;Compound Path&gt;" class="cls-3" d="M285.13,51.74c0,.11,0,.24.06.35-.2-.14-.28.08-.52.1,0-.19.27-.21.16-.47-.11-.09-.36,0-.4-.15.3-.21.16-.1.52-.1,0-.12.21-.11.11-.32-.3-.14-.79.45-1.19.16.15,0,.12-.21.19-.32a1.87,1.87,0,0,0-1.29.46c-.3-.19-.73,0-1,.27.23-.08.19.18.46.05.05-.13.22-.19.33-.28.07.18.33.07.42.21a4.61,4.61,0,0,1-1.24.3c0-.1.07-.13,0-.21a2,2,0,0,1-.89.09c.09,0,.21,0,.21-.1-.33,0-.32.1-.34.21a1.88,1.88,0,0,0-1.37.56c0-.15.09-.16.12-.24a2.14,2.14,0,0,0-1.14.5c-.1-.1-.3,0-.32-.23-2.09.74-4.61.77-6.44,1.52a3.6,3.6,0,0,0-2,.24,17.75,17.75,0,0,0-3.94.46c-.22,0-.53.05-.7-.16-.65.24-1.28,0-2,.23-1.46-.11-3,0-4.37,0-.9,0-1.75-.18-2.59-.25s-1.43,0-2.05-.11c-.21,0-.42-.21-.64-.24s-.39.08-.52,0a14.51,14.51,0,0,0-2.63-.52c-.58-.37-1.52-.28-2-.79a5.23,5.23,0,0,1-2.47-1,15.75,15.75,0,0,1-4.42-2.65c-.18,0-.24-.08-.38-.08a.72.72,0,0,0-.75-.52c.18-.24-.17-.18-.13-.48-.71-.19-.93-1-1.53-1.32-.61-1-1.84-2-2.41-3.42-.18,0-.24-.06-.32-.14-.59-1.46-1.6-2.35-2-4.1a.41.41,0,0,1-.24-.11c.06-.57-.58-1.14-.53-1.72,0-.11-.2,0-.23-.09,0-.78-.46-.84-.39-1.76.32.07.15-.46.22-.63.15,0,.08.21.24,0s.07-.52.43-.75c-.17-.35.57-.64.44-1.18.6-.19.19-1.09.9-1.19,0-.14-.1-.14-.1-.27a.19.19,0,0,1,.29-.05c.09-.7.89-.91.55-1.57.8-.32.31-1.47,1.09-1.53.13-.36.06-.86.38-1.08,0-.24-.17-.23-.13-.49a.59.59,0,0,1,.25-.35c-.12-.77,1.1-2.07,1-2.88.16-.29.58-1.35.63-1.45a6.41,6.41,0,0,0,.62-1.95c-.06,0,.29-.3.3-.41,0-.29.18-.43.19-.73l.21-.52.09-.59.45-1.75s-.07,0-.08,0a5.83,5.83,0,0,1,.19-.68v-.11l-.07-.05.2-1.31a18.74,18.74,0,0,0,.37-3c0-.31.06-1.12,0-1.41s-.19-1.87-.15-2.28a3.61,3.61,0,0,0-.19-1.2c-.17-1-.15-.28-.55-1.24a5.81,5.81,0,0,0-.15-.64c0-.21-.31-.23-.35-.38.06-.31-.17-.35-.31-.67-.24-.55-.39-.88-.74-1,0-.11-.66-.87-.68-1-.61-.41-.61-.25-1.24-.65,0-.07,0-.14,0-.21a6.42,6.42,0,0,0-3-.29.61.61,0,0,1-.4.43c-.13,0-.11-.17-.31-.08-.65.15-.94.56-1.56.74a21.55,21.55,0,0,0-2.2,3.93c.17,0-.16.29,0,.52-.49.44-.35,1.32-.74,1.83a.3.3,0,0,0,.1.2,9.64,9.64,0,0,0-.64,2.55,22.84,22.84,0,0,0-.46,2.94c0,1-.25,1.66-.28,2.54a3.67,3.67,0,0,1-.13,1.27c.2.27,0,.55,0,.82-.1,1.6-.07,3.25-.12,4.92,0,.09-.07.13-.12.18a13.74,13.74,0,0,1,0,3.14c.3.39.11,1,.12,1.44s.18,1,.2,1.57c0,0-.12.13-.12.24,0,1.62.47,3.44.61,5.37-.54.73-.55,1.71-1.39,2.23-.22.68-.84,1-1.21,1.62-.56.29-.65,1.25-1.26,1.54h0l0,0-.07,0h0c-.75.59-2.93,3.07-3.35,2.74-.28.1-1.17.84-2-.69a18.41,18.41,0,0,1-1.4-3.1c-.12-1.42-.33-2.66-.38-4.12a2.4,2.4,0,0,0-.27-.93,13.58,13.58,0,0,0,.48-2.67,1.66,1.66,0,0,0,.1-.72l.08-.58s0-1.27,0-1.27l-.7-.17a8.76,8.76,0,0,0-1.26.05l-.65.07-1.11.05a2.08,2.08,0,0,1-1,.23l-.71.79-1.29.19-2.49,1-3.8,2.43-2,1.29a5.83,5.83,0,0,1-1.73,1.47l-1.47,1.38c.48-.4-1.32,1.8-2.36,2.79-.5,1.2-3.19,6-2.63,6.26-.71,3.17-1,3.37,2,6.38,2.1,2.08,5.55.43,6.81,0a11.42,11.42,0,0,0,1.1-.83c3-1.2,3.58-1.94,6.1-4.9v.28l.61-1.47c1.49-1.53,1.2-2.56,2.76-4.34l.16-.24a.17.17,0,0,1,0,.06,14.93,14.93,0,0,1,.87,2.48,14.45,14.45,0,0,0,3,4,4.11,4.11,0,0,0,3.81.15c1.37-.51,3.49-3.44,3.78-3.55l0-.21a1.91,1.91,0,0,0,.39-.53c.94-.75,1.78-2.46,2-2.42.33-.27.46-.56.9-.62-.13-.21.36-.81.64-.85,0,0,.31.36.47.14a10.45,10.45,0,0,1,1,2.37c1.31,2,2.35,4.36,3.94,6,.45,1.07,1,1,1.48,2,.43-.06.41.5.74.59.15.58,1,.79,1.45,1.26-.1.16,0,.09,0,.27.24-.07.16.3.47.14,0,.09-.09.11,0,.23a1.12,1.12,0,0,1,.55.18A14.93,14.93,0,0,0,244,56.22c-.06,0-.15,0-.14.11,1.09.46,2.13,1,3.27,1.35.06-.27-.44-.19-.26-.31.27.07.57.1.72.37.15-.26.06.07.16,0,1.42,0,2.68.84,4.33.79.09.24.71.11.52.49.35-.26,1,.21,1.24-.31.33.28.5.09,1,0,.05.32.39.26.58.39,0-.15.26-.07.35-.13.6.24,1.54,0,1.94.29a1.47,1.47,0,0,0-1,.25c.32.1.86-.07,1.14.07.18-.17-.21-.34.08-.46.1.35.13-.08.3-.06s.24.14.27.31l-.51.1c.38.27,1.12.08,1.67.12.06-.16-.25-.21,0-.29a2,2,0,0,0,1.27-.17c.29.16.66,0,.86.21.42-.31,1.13-.08,1.72-.11-.1-.22.22-.15.26-.27.27.27,1.08.14,1.44,0a6.07,6.07,0,0,0,2.45-.25c0-.27.06-.22-.06-.43-.24.07-.09.24-.29.05-.09.07,0,.27-.1.31a5.11,5.11,0,0,1-1.13.08c0-.1.08-.12,0-.23-.66.3-1,0-1.6.44.26-.55-.35-.09-.44-.49a.4.4,0,0,1,.3,0c-.1-.38-.47-.19-.52.09.08,0,.19,0,.08.06s-.35-.13-.32-.39c.24-.09.6,0,1-.18-.08-.33.28-.38.29-.64.12.38.65.16.93.12,0,.44-.76.17-.86.38.19,0,.15.25.34.22,0-.11.49-.21.51-.09s-.42.14-.4.37c.27-.06.45-.41.67-.13.05-.17,0-.41.23-.48.38,0,1.18.14,1.48-.29-.08.29.25,0,.24.18-.19.2-.27.45-.39.36,0,.28.29,0,.45.06-.11-.45.19-.64.38-.58s0,.22.1.2-.07-.34,0-.3c.07.28.47.15.68,0,0,.11,0,.27.11.27s0-.08.07-.09h.06c.24-.06-.23-.07,0-.13.27.18.79-.12,1.17-.24,0-.11-.06-.25,0-.3a1.86,1.86,0,0,1,.53,0c0,.17-.45.07-.33.35h0A1.31,1.31,0,0,1,272.1,57c0,.08-.16.09-.13.25a1.8,1.8,0,0,1,.31-.05s0,0,0,0c0-.2-.15-.12,0-.29,1.28.18,2.67-.36,4.28-.73,0-.09,0-.2.06-.23s.2-.08.19-.19c.16,0,.06.2-.08.25.1.13.3.11.56,0a.37.37,0,0,1,.23-.36c.13-.1.31-.16.27-.39a.23.23,0,0,1,.21.11l0,0c.1.09.23.14.26.31-.07,0-.08.08-.14.11s-.15-.07-.24-.11l-.11.09a1.12,1.12,0,0,1,.21.7,1,1,0,0,1,.5-.24c0-.15-.12-.13-.18-.19.76-.3,1.59-.74,2.29-.95a2,2,0,0,0,0,.21.75.75,0,0,0,.77-.5c.19.33.59-.08.85.12.08-.15.07-.38.32-.42,0,.08-.09.13,0,.14.31-.29.35,0,.88-.17-.09-.26.26-.35,0-.51-.44.06.1.38-.32.43a.35.35,0,0,0-.54,0c0-.24-.14-.21-.26-.24-.11.15.15.27-.18.33-.09-.09,0-.23-.09-.39a.88.88,0,0,1-.18.14c-.25.28-.54.25-.91.49,0-.16,0-.23-.14-.24a.25.25,0,0,0-.08.06c0,.08.14.12-.08.16a.42.42,0,0,1,0-.08c-.09.06-.17.07-.22,0a2,2,0,0,0-.19.24c0-.05.16.2-.06.15,0-.1-.11-.1-.25-.24l0,0s0,0,0-.1c-.16.11.19.3-.19.34,0-.14,0-.2-.14-.19s0,0,0,0c.1.18-.39.28-.35.21a.4.4,0,0,1,0-.3,1,1,0,0,1-.36,0,.13.13,0,0,1,.07-.06c-.12,0-.12,0-.24-.2-.09.4-.54.33-.93.32.06.17-.28.37-.35.22.32-.13.25-.12.11-.32.26-.36,1-.19,1.07-.5.23-.13.09.22.32.1a1.36,1.36,0,0,1,1-.35c.09-.21.63-.12.69-.5.23,0,.23-.19.5-.18,0,.14-.22.27,0,.29.1-.17.12-.39.39-.44s-.07.23.19.25c.17-.19.12-.22.17-.39.15.2.27,0,.39.14a.37.37,0,0,1,.32-.42c.18.24-.1.13,0,.44.54-.09.94-.79,1.36-.55.07-.16-.07-.32.25-.41s.19.24.33.31c.21-.23.5,0,.73-.21.06-.07,0-.45-.21-.4M211.2,37.13c-.64,1.38-.54,2.9-1.7,3.4l-.07.63c-.19,1.09-1.09,1.6-1.72,2.33l.2.27a3.89,3.89,0,0,1-1.57,1.8,47,47,0,0,1-3.93,3.39c-1.72,0-1.21.78-3.36.59-1.38-.59-1.47-2.88-.63-3.47,1.12-2.65,1.62-4,2.42-4.77,1.54-2.28,4.93-4.1,5.9-5.37,1.3-1.29,3.36-2,4.82-2.57Zm20.11-7.91c-.45-3.74-.1-6.59-.26-10,.1,0,.09-.12.22-.12-.22-2.34.32-4.32.42-6.59.65-.59-.19-2.6.69-2.78-.08-.46.49-1.23.14-1.26a6.47,6.47,0,0,1,1.09-2.71c0-.11,0-.23-.05-.35a6.49,6.49,0,0,1,2.32-1.67c.22.06-.26,1,.15.8.38.38.48,1.11.93,1.41l.12.7c.38.38.05,1.63.46,1.77a3.87,3.87,0,0,0,0,.94c-.15,2.06.27,1.51,0,3.4,0,.22.26.17,0,1.23-.06,0-.15.53-.2.54s.07.45-.15.44c-.15.23,0,.55-.1.89,0,.08.13,0,.21,0l0,.23c-.1.09-.2.12-.25.26s.12-.06.15.05a.89.89,0,0,0-.14.77,1.92,1.92,0,0,1-.06.24c-.13.14-.29.09-.46.28s.13.58-.3.64c.2.2,0,.56.17.69-.19,0-.32.1-.27.27s-.34.93-.68,1.16c.26.16,0,.78.4.79-.16.12-.3.29-.43.09a18.52,18.52,0,0,0-.89,1.93c.21-.11.16.13.18.26a1.65,1.65,0,0,0-.48.39c.1.34-.18.65-.26.92s-.33.89-.49.9a7.27,7.27,0,0,1-.84,1.63c-.26,0-.27.34-.3.57-.68.18-.41,1-1,1.28m31.86,29.18c0-.11.12-.11.23-.11a.2.2,0,0,0,0,.13.26.26,0,0,1-.21,0m.23,0a.26.26,0,0,1,.11-.12.2.2,0,0,1-.11.12m.26-.39a.84.84,0,0,1,.66-.51s-.09,0,0-.06.29,0,.33.16c-.26,0-.45.32-1,.41m4-.82c.27-.13.19.18.38.16,0,.16-.41.05-.38-.16m1.5.25c0-.18.18-.2.28-.12s-.18.09-.28.12m.37-.06c-.06-.15.09-.16.2-.18a.24.24,0,0,1-.2.18m.58-.78c-.1-.23.21-.15.35-.2,0,.16-.17.18-.35.2m.9.21a.18.18,0,0,1,.29-.13c0,.11-.17.09-.29.13m.4-.51c.11-.12.41-.3.57-.18a.63.63,0,0,1-.57.18m.67.18c0-.19.6-.38.59-.11a.69.69,0,0,0-.59.11m1-.7c.23,0,.48-.13.46.14-.21,0-.44.08-.46-.14m.91.89c-.33-.24-.46.12-.8.06.17-.4.62-.23,1-.54,0,.14.11.14.1.28s-.36,0-.27.2m.84-1.27c-.24.09-.28-.08-.32-.23a.5.5,0,0,0,.36,0,.37.37,0,0,0,0,.23m.06.8c0-.06.07-.08.07-.15l.14,0c.05.15-.08.16-.21.18m.65-1-.15,0c0-.28-.1,0-.23-.1s.31-.09.42-.15c0,.11,0,.13,0,.23m.9.81c-.09,0-.13-.12-.23-.11s.16-.09.27-.13a.43.43,0,0,0,0,.23m.11-.39c-.18,0-.05-.25,0-.3s.06.14.16.12-.14.07-.13.18m.11-.32c0-.25.46-.41.57-.18s-.42.27-.57.18m1.81-.39s0,.09,0,.14l-.15,0a.52.52,0,0,1,0-.14l.15,0m-.82,0a2.45,2.45,0,0,1,0,.31c-.22,0-.31-.3,0-.31"/><path id="_Compound_Path_8" data-name="&lt;Compound Path&gt;" class="cls-3" d="M294.42,52.74a5.76,5.76,0,0,1-2.3-.48A6,6,0,0,1,290.27,51,6.08,6.08,0,0,1,289,49.11a5.75,5.75,0,0,1-.44-2.27,5.89,5.89,0,0,1,.48-2.3,6,6,0,0,1,3.15-3.11A5.76,5.76,0,0,1,294.5,41a5.84,5.84,0,0,1,4.2,1.75,5.84,5.84,0,0,1,1.22,1.87,5.63,5.63,0,0,1,.44,2.27,5.69,5.69,0,0,1-.47,2.29A5.75,5.75,0,0,1,298.62,51a6,6,0,0,1-1.88,1.26,5.74,5.74,0,0,1-2.26.45Zm.07-11a4.9,4.9,0,0,0-2,.4,5.27,5.27,0,0,0-1.64,1.09,5.08,5.08,0,0,0-1.5,3.62,5.06,5.06,0,0,0,.37,2,5,5,0,0,0,1.05,1.64,5.17,5.17,0,0,0,1.61,1.11,4.86,4.86,0,0,0,2,.42,5.08,5.08,0,0,0,2-.39,5.13,5.13,0,0,0,1.65-1.1,5.12,5.12,0,0,0,1.5-3.62,5,5,0,0,0-3-4.78,5,5,0,0,0-2-.42l-.06-.06Zm1.82,8-1.75-2.29-1.41,0,0,2.24h-1l0-6.08,2.73,0a3,3,0,0,1,1,.18,2.11,2.11,0,0,1,.77.48,1.62,1.62,0,0,1,.36.52,1.58,1.58,0,0,1,.12.69,1.62,1.62,0,0,1-.46,1.23,2.36,2.36,0,0,1-1,.58l1.85,2.43Zm-1.51-3.18a1.7,1.7,0,0,0,1-.25.84.84,0,0,0,.37-.73.83.83,0,0,0-.33-.72,1.53,1.53,0,0,0-1-.28h-1.69v2Z"/><path id="_Compound_Path_9" data-name="&lt;Compound Path&gt;" class="cls-3" d="M294.5,41.06h.05a6,6,0,0,1,2.28.48,5.65,5.65,0,0,1,1.82,1.26,5.77,5.77,0,0,1,1.22,1.84,5.67,5.67,0,0,1,.43,2.25v0a5.58,5.58,0,0,1-.47,2.24A5.82,5.82,0,0,1,298.57,51a6,6,0,0,1-1.86,1.24,5.63,5.63,0,0,1-2.24.45h-.05a5.77,5.77,0,0,1-2.27-.48,5.72,5.72,0,0,1-3-3.11,5.64,5.64,0,0,1-.43-2.24v0a5.68,5.68,0,0,1,.47-2.24,6,6,0,0,1,1.25-1.83,5.86,5.86,0,0,1,1.86-1.25,5.73,5.73,0,0,1,2.24-.45m0,11a4.92,4.92,0,0,0,2-.4,5.21,5.21,0,0,0,1.67-1.12,5.18,5.18,0,0,0,1.52-3.66v0a5.2,5.2,0,0,0-1.45-3.69,5.11,5.11,0,0,0-1.63-1.12,5,5,0,0,0-2-.43h-.06a5.08,5.08,0,0,0-2,.4,5.25,5.25,0,0,0-1.66,1.12,5.05,5.05,0,0,0-1.11,1.64,5.39,5.39,0,0,0-.41,2v0a5.19,5.19,0,0,0,.38,2,5,5,0,0,0,1.07,1.66,5.17,5.17,0,0,0,1.63,1.12,4.92,4.92,0,0,0,2,.43h.06m-2.24-8.38,2.66,0a3.09,3.09,0,0,1,1,.17,2,2,0,0,1,.74.47,1.54,1.54,0,0,1,.35.49,1.68,1.68,0,0,1,.12.67v0a1.58,1.58,0,0,1-.44,1.16,2.26,2.26,0,0,1-1.12.58l1.83,2.41-1.09,0-1.7-2.26h-1.53l0,2.24h-.88l0-6m2.59,2.94a1.8,1.8,0,0,0,1-.26.91.91,0,0,0,.4-.79v0a.9.9,0,0,0-.36-.75,1.56,1.56,0,0,0-1-.29h-1.75l0,2.11,1.7,0h0m-.32-5.72a6,6,0,0,0-2.29.45,6.07,6.07,0,0,0-1.9,1.28A6.13,6.13,0,0,0,289,44.53a6.06,6.06,0,0,0,0,4.61A6,6,0,0,0,290.22,51a5.9,5.9,0,0,0,4.19,1.78h.05a5.9,5.9,0,0,0,2.29-.46,6.05,6.05,0,0,0,1.91-1.28,6,6,0,0,0,1.28-1.87,6,6,0,0,0,0-4.61,6,6,0,0,0-3.11-3.18,6,6,0,0,0-2.33-.49Zm0,11h-.06a5,5,0,0,1-2-.42,5.1,5.1,0,0,1-1.59-1.1,4.93,4.93,0,0,1-1-1.62,5.06,5.06,0,0,1-.37-2,5.15,5.15,0,0,1,.4-2,4.89,4.89,0,0,1,1.08-1.61,5.11,5.11,0,0,1,1.62-1.09,4.81,4.81,0,0,1,2-.39h.06a5,5,0,0,1,2,.42,5.18,5.18,0,0,1,1.59,1.09,5.05,5.05,0,0,1,1,1.62,5.29,5.29,0,0,1,0,4,4.94,4.94,0,0,1-1.08,1.6,5.15,5.15,0,0,1-1.63,1.08,4.77,4.77,0,0,1-2,.4m-2.37-8.39v.13l0,6v.13h1.14v-.13l0-2.11h1.33l1.66,2.21,0,.05h1.43l-.17-.21-1.71-2.25a2.34,2.34,0,0,0,1-.57,1.68,1.68,0,0,0,.48-1.24,1.83,1.83,0,0,0-.13-.74,1.56,1.56,0,0,0-.38-.54,2.15,2.15,0,0,0-.78-.5,3.19,3.19,0,0,0-1.07-.18l-2.66,0Zm1.12,2.93,0-1.86,1.62,0a1.46,1.46,0,0,1,.92.27.76.76,0,0,1,.31.65.79.79,0,0,1-.35.7,1.57,1.57,0,0,1-.91.24v.13l0-.13Z"/></g></svg>